<?xml version="1.0" encoding="utf-8" standalone="no"?>
<!DOCTYPE svg PUBLIC "-//W3C//DTD SVG 1.1//EN"
  "http://www.w3.org/Graphics/SVG/1.1/DTD/svg11.dtd">
<svg xmlns:xlink="http://www.w3.org/1999/xlink" width="424.541812pt" height="223.206pt" viewBox="0 0 424.541812 223.206" xmlns="http://www.w3.org/2000/svg" version="1.1">
 <metadata>
  <rdf:RDF xmlns:dc="http://purl.org/dc/elements/1.1/" xmlns:cc="http://creativecommons.org/ns#" xmlns:rdf="http://www.w3.org/1999/02/22-rdf-syntax-ns#">
   <cc:Work>
    <dc:type rdf:resource="http://purl.org/dc/dcmitype/StillImage"/>
    <dc:date>2026-09-28T17:25:14.341992</dc:date>
    <dc:format>image/svg+xml</dc:format>
    <dc:creator>
     <cc:Agent>
      <dc:title>Matplotlib v3.11.2, https://matplotlib.org/</dc:title>
     </cc:Agent>
    </dc:creator>
   </cc:Work>
  </rdf:RDF>
 </metadata>
 <defs>
  <style type="text/css">*{stroke-linejoin: round; stroke-linecap: butt}</style>
 </defs>
 <g id="figure_1">
  <g id="patch_1">
   <path d="M 0 223.206 
L 424.541812 223.206 
L 424.541812 0 
L 0 0 
z
" style="fill: #ffffff"/>
  </g>
  <g id="axes_1">
   <g id="patch_2">
    <path d="M 59.364 186.54 
L 410.904 186.54 
L 410.904 20.22 
L 59.364 20.22 
z
" style="fill: #ffffff"/>
   </g>
   <g id="patch_3">
    <path d="M 75.343091 186.54 
L 83.537497 186.54 
L 83.537497 146.238066 
L 75.343091 146.238066 
z
" clip-path="url(#p2763dfa9eb)" style="fill: #c9d3d6"/>
   </g>
   <g id="patch_4">
    <path d="M 116.315119 186.54 
L 124.509524 186.54 
L 124.509524 172.22431 
L 116.315119 172.22431 
z
" clip-path="url(#p2763dfa9eb)" style="fill: #c9d3d6"/>
   </g>
   <g id="patch_5">
    <path d="M 157.287147 186.54 
L 165.481552 186.54 
L 165.481552 128.795056 
L 157.287147 128.795056 
z
" clip-path="url(#p2763dfa9eb)" style="fill: #c9d3d6"/>
   </g>
   <g id="patch_6">
    <path d="M 198.259175 186.54 
L 206.45358 186.54 
L 206.45358 128.8254 
L 198.259175 128.8254 
z
" clip-path="url(#p2763dfa9eb)" style="fill: #c9d3d6"/>
   </g>
   <g id="patch_7">
    <path d="M 239.231203 186.54 
L 247.425608 186.54 
L 247.425608 165.472789 
L 239.231203 165.472789 
z
" clip-path="url(#p2763dfa9eb)" style="fill: #c9d3d6"/>
   </g>
   <g id="patch_8">
    <path d="M 280.203231 186.54 
L 288.397636 186.54 
L 288.397636 122.495375 
L 280.203231 122.495375 
z
" clip-path="url(#p2763dfa9eb)" style="fill: #c9d3d6"/>
   </g>
   <g id="patch_9">
    <path d="M 321.175259 186.54 
L 329.369664 186.54 
L 329.369664 121.051194 
L 321.175259 121.051194 
z
" clip-path="url(#p2763dfa9eb)" style="fill: #c9d3d6"/>
   </g>
   <g id="patch_10">
    <path d="M 362.147287 186.54 
L 370.341692 186.54 
L 370.341692 176.216431 
L 362.147287 176.216431 
z
" clip-path="url(#p2763dfa9eb)" style="fill: #c9d3d6"/>
   </g>
   <g id="patch_11">
    <path d="M 83.537497 186.54 
L 91.731902 186.54 
L 91.731902 168.077772 
L 83.537497 168.077772 
z
" clip-path="url(#p2763dfa9eb)" style="fill: #1f5c6a"/>
   </g>
   <g id="patch_12">
    <path d="M 124.509524 186.54 
L 132.70393 186.54 
L 132.70393 179.946347 
L 124.509524 179.946347 
z
" clip-path="url(#p2763dfa9eb)" style="fill: #1f5c6a"/>
   </g>
   <g id="patch_13">
    <path d="M 165.481552 186.54 
L 173.675958 186.54 
L 173.675958 158.846658 
L 165.481552 158.846658 
z
" clip-path="url(#p2763dfa9eb)" style="fill: #1f5c6a"/>
   </g>
   <g id="patch_14">
    <path d="M 206.45358 186.54 
L 214.647986 186.54 
L 214.647986 154.890466 
L 206.45358 154.890466 
z
" clip-path="url(#p2763dfa9eb)" style="fill: #1f5c6a"/>
   </g>
   <g id="patch_15">
    <path d="M 247.425608 186.54 
L 255.620014 186.54 
L 255.620014 175.990155 
L 247.425608 175.990155 
z
" clip-path="url(#p2763dfa9eb)" style="fill: #1f5c6a"/>
   </g>
   <g id="patch_16">
    <path d="M 288.397636 186.54 
L 296.592042 186.54 
L 296.592042 107.416164 
L 288.397636 107.416164 
z
" clip-path="url(#p2763dfa9eb)" style="fill: #1f5c6a"/>
   </g>
   <g id="patch_17">
    <path d="M 329.369664 186.54 
L 337.56407 186.54 
L 337.56407 52.029479 
L 329.369664 52.029479 
z
" clip-path="url(#p2763dfa9eb)" style="fill: #1f5c6a"/>
   </g>
   <g id="patch_18">
    <path d="M 370.341692 186.54 
L 378.536098 186.54 
L 378.536098 164.12158 
L 370.341692 164.12158 
z
" clip-path="url(#p2763dfa9eb)" style="fill: #1f5c6a"/>
   </g>
   <g id="patch_19">
    <path d="M 91.731902 186.54 
L 99.926308 186.54 
L 99.926308 175.506621 
L 91.731902 175.506621 
z
" clip-path="url(#p2763dfa9eb)" style="fill: #6db27a"/>
   </g>
   <g id="patch_20">
    <path d="M 132.70393 186.54 
L 140.898336 186.54 
L 140.898336 177.713297 
L 132.70393 177.713297 
z
" clip-path="url(#p2763dfa9eb)" style="fill: #6db27a"/>
   </g>
   <g id="patch_21">
    <path d="M 173.675958 186.54 
L 181.870364 186.54 
L 181.870364 145.716497 
L 173.675958 145.716497 
z
" clip-path="url(#p2763dfa9eb)" style="fill: #6db27a"/>
   </g>
   <g id="patch_22">
    <path d="M 214.647986 186.54 
L 222.842392 186.54 
L 222.842392 145.716497 
L 214.647986 145.716497 
z
" clip-path="url(#p2763dfa9eb)" style="fill: #6db27a"/>
   </g>
   <g id="patch_23">
    <path d="M 255.620014 186.54 
L 263.81442 186.54 
L 263.81442 171.093269 
L 255.620014 171.093269 
z
" clip-path="url(#p2763dfa9eb)" style="fill: #6db27a"/>
   </g>
   <g id="patch_24">
    <path d="M 296.592042 186.54 
L 304.786448 186.54 
L 304.786448 151.233186 
L 296.592042 151.233186 
z
" clip-path="url(#p2763dfa9eb)" style="fill: #6db27a"/>
   </g>
   <g id="patch_25">
    <path d="M 337.56407 186.54 
L 345.758476 186.54 
L 345.758476 44.209407 
L 337.56407 44.209407 
z
" clip-path="url(#p2763dfa9eb)" style="fill: #6db27a"/>
   </g>
   <g id="patch_26">
    <path d="M 378.536098 186.54 
L 386.730503 186.54 
L 386.730503 150.129848 
L 378.536098 150.129848 
z
" clip-path="url(#p2763dfa9eb)" style="fill: #6db27a"/>
   </g>
   <g id="patch_27">
    <path d="M 99.926308 186.54 
L 108.120713 186.54 
L 108.120713 179.985517 
L 99.926308 179.985517 
z
" clip-path="url(#p2763dfa9eb)" style="fill: #e8862a"/>
   </g>
   <g id="patch_28">
    <path d="M 140.898336 186.54 
L 149.092741 186.54 
L 149.092741 182.170345 
L 140.898336 182.170345 
z
" clip-path="url(#p2763dfa9eb)" style="fill: #e8862a"/>
   </g>
   <g id="patch_29">
    <path d="M 181.870364 186.54 
L 190.064769 186.54 
L 190.064769 166.876552 
L 181.870364 166.876552 
z
" clip-path="url(#p2763dfa9eb)" style="fill: #e8862a"/>
   </g>
   <g id="patch_30">
    <path d="M 222.842392 186.54 
L 231.036797 186.54 
L 231.036797 154.86 
L 222.842392 154.86 
z
" clip-path="url(#p2763dfa9eb)" style="fill: #e8862a"/>
   </g>
   <g id="patch_31">
    <path d="M 263.81442 186.54 
L 272.008825 186.54 
L 272.008825 172.338621 
L 263.81442 172.338621 
z
" clip-path="url(#p2763dfa9eb)" style="fill: #e8862a"/>
   </g>
   <g id="patch_32">
    <path d="M 304.786448 186.54 
L 312.980853 186.54 
L 312.980853 131.91931 
L 304.786448 131.91931 
z
" clip-path="url(#p2763dfa9eb)" style="fill: #e8862a"/>
   </g>
   <g id="patch_33">
    <path d="M 345.758476 186.54 
L 353.952881 186.54 
L 353.952881 28.14 
L 345.758476 28.14 
z
" clip-path="url(#p2763dfa9eb)" style="fill: #e8862a"/>
   </g>
   <g id="patch_34">
    <path d="M 386.730503 186.54 
L 394.924909 186.54 
L 394.924909 145.028276 
L 386.730503 145.028276 
z
" clip-path="url(#p2763dfa9eb)" style="fill: #e8862a"/>
   </g>
   <g id="matplotlib.axis_1">
    <g id="xtick_1">
     <g id="line2d_1">
      <defs>
       <path id="m09cb546713" d="M 0 0 
L 0 3.5 
" style="stroke: #3a3a3a; stroke-width: 0.8"/>
      </defs>
      <g>
       <use xlink:href="#m09cb546713" x="91.731902" y="186.54" style="fill: #3a3a3a; stroke: #3a3a3a; stroke-width: 0.8"/>
      </g>
     </g>
     <g id="text_1">
      <text style="font-size: 6.8px; font-family: 'IBM Plex Sans'; fill: #3a3a3a" transform="translate(87.328902 199.864)">G2</text>
      <text style="font-size: 6.8px; font-family: 'IBM Plex Sans'; fill: #3a3a3a" transform="translate(83.031621 208.704)">&gt;1 mi</text>
     </g>
    </g>
    <g id="xtick_2">
     <g id="line2d_2">
      <g>
       <use xlink:href="#m09cb546713" x="132.70393" y="186.54" style="fill: #3a3a3a; stroke: #3a3a3a; stroke-width: 0.8"/>
      </g>
     </g>
     <g id="text_2">
      <text style="font-size: 6.8px; font-family: 'IBM Plex Sans'; fill: #3a3a3a" transform="translate(128.30093 199.864)">G1</text>
      <text style="font-size: 6.8px; font-family: 'IBM Plex Sans'; fill: #3a3a3a" transform="translate(112.413368 208.704)">500 mil–1 mi</text>
     </g>
    </g>
    <g id="xtick_3">
     <g id="line2d_3">
      <g>
       <use xlink:href="#m09cb546713" x="173.675958" y="186.54" style="fill: #3a3a3a; stroke: #3a3a3a; stroke-width: 0.8"/>
      </g>
     </g>
     <g id="text_3">
      <text style="font-size: 6.8px; font-family: 'IBM Plex Sans'; fill: #3a3a3a" transform="translate(168.875052 199.864)">M2</text>
      <text style="font-size: 6.8px; font-family: 'IBM Plex Sans'; fill: #3a3a3a" transform="translate(153.891677 208.704)">200–500 mil</text>
     </g>
    </g>
    <g id="xtick_4">
     <g id="line2d_4">
      <g>
       <use xlink:href="#m09cb546713" x="214.647986" y="186.54" style="fill: #3a3a3a; stroke: #3a3a3a; stroke-width: 0.8"/>
      </g>
     </g>
     <g id="text_4">
      <text style="font-size: 6.8px; font-family: 'IBM Plex Sans'; fill: #3a3a3a" transform="translate(209.84708 199.864)">M1</text>
      <text style="font-size: 6.8px; font-family: 'IBM Plex Sans'; fill: #3a3a3a" transform="translate(194.863705 208.704)">100–200 mil</text>
     </g>
    </g>
    <g id="xtick_5">
     <g id="line2d_5">
      <g>
       <use xlink:href="#m09cb546713" x="255.620014" y="186.54" style="fill: #3a3a3a; stroke: #3a3a3a; stroke-width: 0.8"/>
      </g>
     </g>
     <g id="text_5">
      <text style="font-size: 6.8px; font-family: 'IBM Plex Sans'; fill: #3a3a3a" transform="translate(251.519826 199.864)">P4</text>
      <text style="font-size: 6.8px; font-family: 'IBM Plex Sans'; fill: #3a3a3a" transform="translate(237.875733 208.704)">70–100 mil</text>
     </g>
    </g>
    <g id="xtick_6">
     <g id="line2d_6">
      <g>
       <use xlink:href="#m09cb546713" x="296.592042" y="186.54" style="fill: #3a3a3a; stroke: #3a3a3a; stroke-width: 0.8"/>
      </g>
     </g>
     <g id="text_6">
      <text style="font-size: 6.8px; font-family: 'IBM Plex Sans'; fill: #3a3a3a" transform="translate(292.491854 199.864)">P3</text>
      <text style="font-size: 6.8px; font-family: 'IBM Plex Sans'; fill: #3a3a3a" transform="translate(280.887761 208.704)">20–70 mil</text>
     </g>
    </g>
    <g id="xtick_7">
     <g id="line2d_7">
      <g>
       <use xlink:href="#m09cb546713" x="337.56407" y="186.54" style="fill: #3a3a3a; stroke: #3a3a3a; stroke-width: 0.8"/>
      </g>
     </g>
     <g id="text_7">
      <text style="font-size: 6.8px; font-family: 'IBM Plex Sans'; fill: #3a3a3a" transform="translate(333.463882 199.864)">P2</text>
      <text style="font-size: 6.8px; font-family: 'IBM Plex Sans'; fill: #3a3a3a" transform="translate(323.899789 208.704)">5–20 mil</text>
     </g>
    </g>
    <g id="xtick_8">
     <g id="line2d_8">
      <g>
       <use xlink:href="#m09cb546713" x="378.536098" y="186.54" style="fill: #3a3a3a; stroke: #3a3a3a; stroke-width: 0.8"/>
      </g>
     </g>
     <g id="text_8">
      <text style="font-size: 6.8px; font-family: 'IBM Plex Sans'; fill: #3a3a3a" transform="translate(374.43591 199.864)">P1</text>
      <text style="font-size: 6.8px; font-family: 'IBM Plex Sans'; fill: #3a3a3a" transform="translate(368.91091 208.704)">≤5 mil</text>
     </g>
    </g>
   </g>
   <g id="matplotlib.axis_2">
    <g id="ytick_1">
     <g id="line2d_9">
      <defs>
       <path id="m35b5576707" d="M 0 0 
L -3.5 0 
" style="stroke: #3a3a3a; stroke-width: 0.8"/>
      </defs>
      <g>
       <use xlink:href="#m35b5576707" x="59.364" y="186.54" style="fill: #3a3a3a; stroke: #3a3a3a; stroke-width: 0.8"/>
      </g>
     </g>
     <g id="text_9">
      <text style="font-size: 7px; font-family: 'IBM Plex Sans'; text-anchor: end; fill: #3a3a3a" x="52.364" y="189.27" transform="rotate(-0 52.364 189.27)">0</text>
     </g>
    </g>
    <g id="ytick_2">
     <g id="line2d_10">
      <g>
       <use xlink:href="#m35b5576707" x="59.364" y="153.439862" style="fill: #3a3a3a; stroke: #3a3a3a; stroke-width: 0.8"/>
      </g>
     </g>
     <g id="text_10">
      <text style="font-size: 7px; font-family: 'IBM Plex Sans'; text-anchor: end; fill: #3a3a3a" x="52.364" y="156.169862" transform="rotate(-0 52.364 156.169862)">10</text>
     </g>
    </g>
    <g id="ytick_3">
     <g id="line2d_11">
      <g>
       <use xlink:href="#m35b5576707" x="59.364" y="120.339724" style="fill: #3a3a3a; stroke: #3a3a3a; stroke-width: 0.8"/>
      </g>
     </g>
     <g id="text_11">
      <text style="font-size: 7px; font-family: 'IBM Plex Sans'; text-anchor: end; fill: #3a3a3a" x="52.364" y="123.069724" transform="rotate(-0 52.364 123.069724)">20</text>
     </g>
    </g>
    <g id="ytick_4">
     <g id="line2d_12">
      <g>
       <use xlink:href="#m35b5576707" x="59.364" y="87.239586" style="fill: #3a3a3a; stroke: #3a3a3a; stroke-width: 0.8"/>
      </g>
     </g>
     <g id="text_12">
      <text style="font-size: 7px; font-family: 'IBM Plex Sans'; text-anchor: end; fill: #3a3a3a" x="52.364" y="89.969586" transform="rotate(-0 52.364 89.969586)">30</text>
     </g>
    </g>
    <g id="ytick_5">
     <g id="line2d_13">
      <g>
       <use xlink:href="#m35b5576707" x="59.364" y="54.139448" style="fill: #3a3a3a; stroke: #3a3a3a; stroke-width: 0.8"/>
      </g>
     </g>
     <g id="text_13">
      <text style="font-size: 7px; font-family: 'IBM Plex Sans'; text-anchor: end; fill: #3a3a3a" x="52.364" y="56.869448" transform="rotate(-0 52.364 56.869448)">40</text>
     </g>
    </g>
    <g id="ytick_6">
     <g id="line2d_14">
      <g>
       <use xlink:href="#m35b5576707" x="59.364" y="21.03931" style="fill: #3a3a3a; stroke: #3a3a3a; stroke-width: 0.8"/>
      </g>
     </g>
     <g id="text_14">
      <text style="font-size: 7px; font-family: 'IBM Plex Sans'; text-anchor: end; fill: #3a3a3a" x="52.364" y="23.76931" transform="rotate(-0 52.364 23.76931)">50</text>
     </g>
    </g>
    <g id="text_15">
     <text style="font-size: 7.5px; font-family: 'IBM Plex Sans'; text-anchor: middle; fill: #3a3a3a" x="38.314" y="103.38" transform="rotate(-90 38.314 103.38)">Participação (%)</text>
    </g>
   </g>
   <g id="patch_35">
    <path d="M 59.364 186.54 
L 59.364 20.22 
" style="fill: none; stroke: #3a3a3a; stroke-width: 0.8; stroke-linejoin: miter; stroke-linecap: square"/>
   </g>
   <g id="patch_36">
    <path d="M 59.364 186.54 
L 410.904 186.54 
" style="fill: none; stroke: #3a3a3a; stroke-width: 0.8; stroke-linejoin: miter; stroke-linecap: square"/>
   </g>
   <g id="text_16">
    <text style="font-size: 6px; font-family: 'IBM Plex Sans'; text-anchor: middle; fill: #3a3a3a" x="79.440294" y="144.252058" transform="rotate(-0 79.440294 144.252058)">12</text>
   </g>
   <g id="text_17">
    <text style="font-size: 6px; font-family: 'IBM Plex Sans'; text-anchor: middle; fill: #3a3a3a" x="87.634699" y="166.091763" transform="rotate(-0 87.634699 166.091763)">6</text>
   </g>
   <g id="text_18">
    <text style="font-size: 6px; font-family: 'IBM Plex Sans'; text-anchor: middle; fill: #3a3a3a" x="95.829105" y="173.520612" transform="rotate(-0 95.829105 173.520612)">3</text>
   </g>
   <g id="text_19">
    <text style="font-size: 6px; font-family: 'IBM Plex Sans'; text-anchor: middle; fill: #3a3a3a" x="104.02351" y="177.999509" transform="rotate(-0 104.02351 177.999509)">2</text>
   </g>
   <g id="text_20">
    <text style="font-size: 6px; font-family: 'IBM Plex Sans'; text-anchor: middle; fill: #3a3a3a" x="120.412322" y="170.238302" transform="rotate(-0 120.412322 170.238302)">4</text>
   </g>
   <g id="text_21">
    <text style="font-size: 6px; font-family: 'IBM Plex Sans'; text-anchor: middle; fill: #3a3a3a" x="128.606727" y="177.960339" transform="rotate(-0 128.606727 177.960339)">2</text>
   </g>
   <g id="text_22">
    <text style="font-size: 6px; font-family: 'IBM Plex Sans'; text-anchor: middle; fill: #3a3a3a" x="136.801133" y="175.727288" transform="rotate(-0 136.801133 175.727288)">3</text>
   </g>
   <g id="text_23">
    <text style="font-size: 6px; font-family: 'IBM Plex Sans'; text-anchor: middle; fill: #3a3a3a" x="144.995538" y="180.184337" transform="rotate(-0 144.995538 180.184337)">1</text>
   </g>
   <g id="text_24">
    <text style="font-size: 6px; font-family: 'IBM Plex Sans'; text-anchor: middle; fill: #3a3a3a" x="161.38435" y="126.809048" transform="rotate(-0 161.38435 126.809048)">17</text>
   </g>
   <g id="text_25">
    <text style="font-size: 6px; font-family: 'IBM Plex Sans'; text-anchor: middle; fill: #3a3a3a" x="169.578755" y="156.860649" transform="rotate(-0 169.578755 156.860649)">8</text>
   </g>
   <g id="text_26">
    <text style="font-size: 6px; font-family: 'IBM Plex Sans'; text-anchor: middle; fill: #3a3a3a" x="177.773161" y="143.730488" transform="rotate(-0 177.773161 143.730488)">12</text>
   </g>
   <g id="text_27">
    <text style="font-size: 6px; font-family: 'IBM Plex Sans'; text-anchor: middle; fill: #3a3a3a" x="185.967566" y="164.890543" transform="rotate(-0 185.967566 164.890543)">6</text>
   </g>
   <g id="text_28">
    <text style="font-size: 6px; font-family: 'IBM Plex Sans'; text-anchor: middle; fill: #3a3a3a" x="202.356378" y="126.839392" transform="rotate(-0 202.356378 126.839392)">17</text>
   </g>
   <g id="text_29">
    <text style="font-size: 6px; font-family: 'IBM Plex Sans'; text-anchor: middle; fill: #3a3a3a" x="210.550783" y="152.904457" transform="rotate(-0 210.550783 152.904457)">10</text>
   </g>
   <g id="text_30">
    <text style="font-size: 6px; font-family: 'IBM Plex Sans'; text-anchor: middle; fill: #3a3a3a" x="218.745189" y="143.730488" transform="rotate(-0 218.745189 143.730488)">12</text>
   </g>
   <g id="text_31">
    <text style="font-size: 6px; font-family: 'IBM Plex Sans'; text-anchor: middle; fill: #3a3a3a" x="226.939594" y="152.873992" transform="rotate(-0 226.939594 152.873992)">10</text>
   </g>
   <g id="text_32">
    <text style="font-size: 6px; font-family: 'IBM Plex Sans'; text-anchor: middle; fill: #3a3a3a" x="243.328406" y="163.486781" transform="rotate(-0 243.328406 163.486781)">6</text>
   </g>
   <g id="text_33">
    <text style="font-size: 6px; font-family: 'IBM Plex Sans'; text-anchor: middle; fill: #3a3a3a" x="251.522811" y="174.004147" transform="rotate(-0 251.522811 174.004147)">3</text>
   </g>
   <g id="text_34">
    <text style="font-size: 6px; font-family: 'IBM Plex Sans'; text-anchor: middle; fill: #3a3a3a" x="259.717217" y="169.107261" transform="rotate(-0 259.717217 169.107261)">5</text>
   </g>
   <g id="text_35">
    <text style="font-size: 6px; font-family: 'IBM Plex Sans'; text-anchor: middle; fill: #3a3a3a" x="267.911622" y="170.352612" transform="rotate(-0 267.911622 170.352612)">4</text>
   </g>
   <g id="text_36">
    <text style="font-size: 6px; font-family: 'IBM Plex Sans'; text-anchor: middle; fill: #3a3a3a" x="284.300434" y="120.509367" transform="rotate(-0 284.300434 120.509367)">19</text>
   </g>
   <g id="text_37">
    <text style="font-size: 6px; font-family: 'IBM Plex Sans'; text-anchor: middle; fill: #3a3a3a" x="292.494839" y="105.430156" transform="rotate(-0 292.494839 105.430156)">24</text>
   </g>
   <g id="text_38">
    <text style="font-size: 6px; font-family: 'IBM Plex Sans'; text-anchor: middle; fill: #3a3a3a" x="300.689245" y="149.247178" transform="rotate(-0 300.689245 149.247178)">11</text>
   </g>
   <g id="text_39">
    <text style="font-size: 6px; font-family: 'IBM Plex Sans'; text-anchor: middle; fill: #3a3a3a" x="308.88365" y="129.933302" transform="rotate(-0 308.88365 129.933302)">17</text>
   </g>
   <g id="text_40">
    <text style="font-size: 6px; font-family: 'IBM Plex Sans'; text-anchor: middle; fill: #3a3a3a" x="325.272462" y="119.065186" transform="rotate(-0 325.272462 119.065186)">20</text>
   </g>
   <g id="text_41">
    <text style="font-size: 6px; font-family: 'IBM Plex Sans'; text-anchor: middle; fill: #3a3a3a" x="333.466867" y="50.043471" transform="rotate(-0 333.466867 50.043471)">41</text>
   </g>
   <g id="text_42">
    <text style="font-size: 6px; font-family: 'IBM Plex Sans'; text-anchor: middle; fill: #3a3a3a" x="341.661273" y="42.223399" transform="rotate(-0 341.661273 42.223399)">43</text>
   </g>
   <g id="text_43">
    <text style="font-size: 6px; font-family: 'IBM Plex Sans'; text-anchor: middle; fill: #3a3a3a" x="349.855678" y="26.153992" transform="rotate(-0 349.855678 26.153992)">48</text>
   </g>
   <g id="text_44">
    <text style="font-size: 6px; font-family: 'IBM Plex Sans'; text-anchor: middle; fill: #3a3a3a" x="366.24449" y="174.230423" transform="rotate(-0 366.24449 174.230423)">3</text>
   </g>
   <g id="text_45">
    <text style="font-size: 6px; font-family: 'IBM Plex Sans'; text-anchor: middle; fill: #3a3a3a" x="374.438895" y="162.135572" transform="rotate(-0 374.438895 162.135572)">7</text>
   </g>
   <g id="text_46">
    <text style="font-size: 6px; font-family: 'IBM Plex Sans'; text-anchor: middle; fill: #3a3a3a" x="382.633301" y="148.14384" transform="rotate(-0 382.633301 148.14384)">11</text>
   </g>
   <g id="text_47">
    <text style="font-size: 6px; font-family: 'IBM Plex Sans'; text-anchor: middle; fill: #3a3a3a" x="390.827706" y="143.042268" transform="rotate(-0 390.827706 143.042268)">13</text>
   </g>
   <g id="text_48">
    <text style="font-size: 9px; font-family: 'IBM Plex Sans'; text-anchor: start; fill: #3a3a3a" x="59.364" y="14.22" transform="rotate(-0 59.364 14.22)">Gráfico 1. Participação de cada porte na população-alvo e nas três etapas de distribuição</text>
   </g>
   <g id="legend_1">
    <g id="patch_37">
     <path d="M 65.664 31.98 
L 79.664 31.98 
L 79.664 27.08 
L 65.664 27.08 
z
" style="fill: #c9d3d6"/>
    </g>
    <g id="text_49">
     <text style="font-size: 7px; font-family: 'IBM Plex Sans'; text-anchor: start; fill: #3a3a3a" x="85.264" y="31.98" transform="rotate(-0 85.264 31.98)">População 0–4 anos (2022)</text>
    </g>
    <g id="patch_38">
     <path d="M 65.664 42.48 
L 79.664 42.48 
L 79.664 37.58 
L 65.664 37.58 
z
" style="fill: #1f5c6a"/>
    </g>
    <g id="text_50">
     <text style="font-size: 7px; font-family: 'IBM Plex Sans'; text-anchor: start; fill: #3a3a3a" x="85.264" y="42.48" transform="rotate(-0 85.264 42.48)">Distribuição técnica (251)</text>
    </g>
    <g id="patch_39">
     <path d="M 65.664 52.98 
L 79.664 52.98 
L 79.664 48.08 
L 65.664 48.08 
z
" style="fill: #6db27a"/>
    </g>
    <g id="text_51">
     <text style="font-size: 7px; font-family: 'IBM Plex Sans'; text-anchor: start; fill: #3a3a3a" x="85.264" y="52.98" transform="rotate(-0 85.264 52.98)">Distribuição consolidada (300)</text>
    </g>
    <g id="patch_40">
     <path d="M 65.664 63.48 
L 79.664 63.48 
L 79.664 58.58 
L 65.664 58.58 
z
" style="fill: #e8862a"/>
    </g>
    <g id="text_52">
     <text style="font-size: 7px; font-family: 'IBM Plex Sans'; text-anchor: start; fill: #3a3a3a" x="85.264" y="63.48" transform="rotate(-0 85.264 63.48)">Lista publicada, Res. 219/2024 (303)</text>
    </g>
   </g>
  </g>
  <g id="text_53">
   <text style="font-size: 6.3px; font-family: 'IBM Plex Sans'; text-anchor: start; fill: #8a8a8a" x="7.2" y="214.62" transform="rotate(-0 7.2 214.62)">Fonte: Elaboração própria. Portes segundo a classificação da etapa consolidada.</text>
  </g>
 </g>
 <defs>
  <clipPath id="p2763dfa9eb">
   <rect x="59.364" y="20.22" width="351.54" height="166.32"/>
  </clipPath>
 </defs>
</svg>
