<?xml version="1.0" encoding="utf-8" standalone="no"?>
<!DOCTYPE svg PUBLIC "-//W3C//DTD SVG 1.1//EN"
  "http://www.w3.org/Graphics/SVG/1.1/DTD/svg11.dtd">
<svg xmlns:xlink="http://www.w3.org/1999/xlink" width="422.588976pt" height="300.420646pt" viewBox="0 0 422.588976 300.420646" xmlns="http://www.w3.org/2000/svg" version="1.1">
 <metadata>
  <rdf:RDF xmlns:dc="http://purl.org/dc/elements/1.1/" xmlns:cc="http://creativecommons.org/ns#" xmlns:rdf="http://www.w3.org/1999/02/22-rdf-syntax-ns#">
   <cc:Work>
    <dc:type rdf:resource="http://purl.org/dc/dcmitype/StillImage"/>
    <dc:date>2026-09-28T20:25:06.209827</dc:date>
    <dc:format>image/svg+xml</dc:format>
    <dc:creator>
     <cc:Agent>
      <dc:title>Matplotlib v3.11.2, https://matplotlib.org/</dc:title>
     </cc:Agent>
    </dc:creator>
   </cc:Work>
  </rdf:RDF>
 </metadata>
 <defs>
  <style type="text/css">*{stroke-linejoin: round; stroke-linecap: butt}</style>
 </defs>
 <g id="figure_1">
  <g id="patch_1">
   <path d="M 0 300.420646 
L 422.588976 300.420646 
L 422.588976 0 
L 0 0 
z
" style="fill: #ffffff"/>
  </g>
  <g id="axes_1">
   <g id="patch_2">
    <path d="M 66.089764 43.553907 
L 171.538583 43.553907 
Q 173.735433 43.553907 173.735433 41.483639 
L 173.735433 22.727011 
Q 173.735433 20.656743 171.538583 20.656743 
L 66.089764 20.656743 
Q 63.892913 20.656743 63.892913 22.727011 
L 63.892913 41.483639 
Q 63.892913 43.553907 66.089764 43.553907 
z
" clip-path="url(#pd204dfcc28)" style="fill: #c24c12; stroke: #c24c12; stroke-width: 0.6; stroke-linejoin: miter"/>
   </g>
   <g id="patch_3">
    <path d="M 66.089764 79.897464 
L 171.538583 79.897464 
Q 173.735433 79.897464 173.735433 77.827195 
L 173.735433 48.108497 
Q 173.735433 46.038229 171.538583 46.038229 
L 66.089764 46.038229 
Q 63.892913 46.038229 63.892913 48.108497 
L 63.892913 77.827195 
Q 63.892913 79.897464 66.089764 79.897464 
z
" clip-path="url(#pd204dfcc28)" style="fill: #feead2; stroke: #feead2; stroke-width: 0.6; stroke-linejoin: miter"/>
   </g>
   <g id="patch_4">
    <path d="M 66.089764 122.63556 
L 171.538583 122.63556 
Q 173.735433 122.63556 173.735433 120.565292 
L 173.735433 84.452053 
Q 173.735433 82.381785 171.538583 82.381785 
L 66.089764 82.381785 
Q 63.892913 82.381785 63.892913 84.452053 
L 63.892913 120.565292 
Q 63.892913 122.63556 66.089764 122.63556 
z
" clip-path="url(#pd204dfcc28)" style="fill: #feead2; stroke: #feead2; stroke-width: 0.6; stroke-linejoin: miter"/>
   </g>
   <g id="patch_5">
    <path d="M 66.089764 152.584576 
L 171.538583 152.584576 
Q 173.735433 152.584576 173.735433 150.514308 
L 173.735433 127.19015 
Q 173.735433 125.119882 171.538583 125.119882 
L 66.089764 125.119882 
Q 63.892913 125.119882 63.892913 127.19015 
L 63.892913 150.514308 
Q 63.892913 152.584576 66.089764 152.584576 
z
" clip-path="url(#pd204dfcc28)" style="fill: #feead2; stroke: #feead2; stroke-width: 0.6; stroke-linejoin: miter"/>
   </g>
   <g id="patch_6">
    <path d="M 186.916535 36.245861 
L 292.365354 36.245861 
Q 294.562205 36.245861 294.562205 34.175593 
L 294.562205 22.727011 
Q 294.562205 20.656743 292.365354 20.656743 
L 186.916535 20.656743 
Q 184.719685 20.656743 184.719685 22.727011 
L 184.719685 34.175593 
Q 184.719685 36.245861 186.916535 36.245861 
z
" clip-path="url(#pd204dfcc28)" style="fill: #0171c1; stroke: #0171c1; stroke-width: 0.6; stroke-linejoin: miter"/>
   </g>
   <g id="patch_7">
    <path d="M 186.916535 66.194877 
L 292.365354 66.194877 
Q 294.562205 66.194877 294.562205 64.124609 
L 294.562205 40.800451 
Q 294.562205 38.730183 292.365354 38.730183 
L 186.916535 38.730183 
Q 184.719685 38.730183 184.719685 40.800451 
L 184.719685 64.124609 
Q 184.719685 66.194877 186.916535 66.194877 
z
" clip-path="url(#pd204dfcc28)" style="fill: #e3edf7; stroke: #e3edf7; stroke-width: 0.6; stroke-linejoin: miter"/>
   </g>
   <g id="patch_8">
    <path d="M 186.916535 96.143892 
L 292.365354 96.143892 
Q 294.562205 96.143892 294.562205 94.073624 
L 294.562205 70.749466 
Q 294.562205 68.679198 292.365354 68.679198 
L 186.916535 68.679198 
Q 184.719685 68.679198 184.719685 70.749466 
L 184.719685 94.073624 
Q 184.719685 96.143892 186.916535 96.143892 
z
" clip-path="url(#pd204dfcc28)" style="fill: #e3edf7; stroke: #e3edf7; stroke-width: 0.6; stroke-linejoin: miter"/>
   </g>
   <g id="patch_9">
    <path d="M 186.916535 126.092908 
L 292.365354 126.092908 
Q 294.562205 126.092908 294.562205 124.02264 
L 294.562205 100.698482 
Q 294.562205 98.628214 292.365354 98.628214 
L 186.916535 98.628214 
Q 184.719685 98.628214 184.719685 100.698482 
L 184.719685 124.02264 
Q 184.719685 126.092908 186.916535 126.092908 
z
" clip-path="url(#pd204dfcc28)" style="fill: #e3edf7; stroke: #e3edf7; stroke-width: 0.6; stroke-linejoin: miter"/>
   </g>
   <g id="patch_10">
    <path d="M 307.743307 36.245861 
L 413.192126 36.245861 
Q 415.388976 36.245861 415.388976 34.175593 
L 415.388976 22.727011 
Q 415.388976 20.656743 413.192126 20.656743 
L 307.743307 20.656743 
Q 305.546457 20.656743 305.546457 22.727011 
L 305.546457 34.175593 
Q 305.546457 36.245861 307.743307 36.245861 
z
" clip-path="url(#pd204dfcc28)" style="fill: #307e3e; stroke: #307e3e; stroke-width: 0.6; stroke-linejoin: miter"/>
   </g>
   <g id="patch_11">
    <path d="M 307.743307 72.589417 
L 413.192126 72.589417 
Q 415.388976 72.589417 415.388976 70.519149 
L 415.388976 40.800451 
Q 415.388976 38.730183 413.192126 38.730183 
L 307.743307 38.730183 
Q 305.546457 38.730183 305.546457 40.800451 
L 305.546457 70.519149 
Q 305.546457 72.589417 307.743307 72.589417 
z
" clip-path="url(#pd204dfcc28)" style="fill: #e8f7e4; stroke: #e8f7e4; stroke-width: 0.6; stroke-linejoin: miter"/>
   </g>
   <g id="patch_12">
    <path d="M 307.743307 108.932973 
L 413.192126 108.932973 
Q 415.388976 108.932973 415.388976 106.862705 
L 415.388976 77.144007 
Q 415.388976 75.073739 413.192126 75.073739 
L 307.743307 75.073739 
Q 305.546457 75.073739 305.546457 77.144007 
L 305.546457 106.862705 
Q 305.546457 108.932973 307.743307 108.932973 
z
" clip-path="url(#pd204dfcc28)" style="fill: #e8f7e4; stroke: #e8f7e4; stroke-width: 0.6; stroke-linejoin: miter"/>
   </g>
   <g id="patch_13">
    <path d="M 307.743307 145.276529 
L 413.192126 145.276529 
Q 415.388976 145.276529 415.388976 143.206261 
L 415.388976 113.487563 
Q 415.388976 111.417295 413.192126 111.417295 
L 307.743307 111.417295 
Q 305.546457 111.417295 305.546457 113.487563 
L 305.546457 143.206261 
Q 305.546457 145.276529 307.743307 145.276529 
z
" clip-path="url(#pd204dfcc28)" style="fill: #e8f7e4; stroke: #e8f7e4; stroke-width: 0.6; stroke-linejoin: miter"/>
   </g>
   <g id="patch_14">
    <path d="M 66.089764 173.927746 
L 413.192126 173.927746 
Q 415.388976 173.927746 415.388976 171.857478 
L 415.388976 160.865648 
Q 415.388976 158.79538 413.192126 158.79538 
L 66.089764 158.79538 
Q 63.892913 158.79538 63.892913 160.865648 
L 63.892913 171.857478 
Q 63.892913 173.927746 66.089764 173.927746 
z
" clip-path="url(#pd204dfcc28)" style="fill: #f2f2f2; stroke: #bfbfbf; stroke-width: 0.6; stroke-linejoin: miter"/>
   </g>
   <g id="patch_15">
    <path d="M 118.814173 173.927746 
Q 118.814173 177.550715 118.814173 180.502864 
" clip-path="url(#pd204dfcc28)" style="fill: none; stroke: #3a3a3a; stroke-width: 0.6; stroke-linecap: round"/>
    <path d="M 120.214173 177.702864 
L 118.814173 180.502864 
L 117.414173 177.702864 
z
" clip-path="url(#pd204dfcc28)" style="fill: #3a3a3a; stroke: #3a3a3a; stroke-width: 0.6; stroke-linecap: round"/>
   </g>
   <g id="patch_16">
    <path d="M 66.089764 210.008637 
L 171.538583 210.008637 
Q 173.735433 210.008637 173.735433 207.938369 
L 173.735433 183.243952 
Q 173.735433 181.173684 171.538583 181.173684 
L 66.089764 181.173684 
Q 63.892913 181.173684 63.892913 183.243952 
L 63.892913 207.938369 
Q 63.892913 210.008637 66.089764 210.008637 
z
" clip-path="url(#pd204dfcc28)" style="fill: #c24c12; stroke: #c24c12; stroke-width: 0.6; stroke-linejoin: miter"/>
   </g>
   <g id="patch_17">
    <path d="M 239.640945 173.927746 
Q 239.640945 177.550715 239.640945 180.502864 
" clip-path="url(#pd204dfcc28)" style="fill: none; stroke: #3a3a3a; stroke-width: 0.6; stroke-linecap: round"/>
    <path d="M 241.040945 177.702864 
L 239.640945 180.502864 
L 238.240945 177.702864 
z
" clip-path="url(#pd204dfcc28)" style="fill: #3a3a3a; stroke: #3a3a3a; stroke-width: 0.6; stroke-linecap: round"/>
   </g>
   <g id="patch_18">
    <path d="M 186.916535 210.008637 
L 292.365354 210.008637 
Q 294.562205 210.008637 294.562205 207.938369 
L 294.562205 183.243952 
Q 294.562205 181.173684 292.365354 181.173684 
L 186.916535 181.173684 
Q 184.719685 181.173684 184.719685 183.243952 
L 184.719685 207.938369 
Q 184.719685 210.008637 186.916535 210.008637 
z
" clip-path="url(#pd204dfcc28)" style="fill: #0171c1; stroke: #0171c1; stroke-width: 0.6; stroke-linejoin: miter"/>
   </g>
   <g id="patch_19">
    <path d="M 360.467717 173.927746 
Q 360.467717 177.550715 360.467717 180.502864 
" clip-path="url(#pd204dfcc28)" style="fill: none; stroke: #3a3a3a; stroke-width: 0.6; stroke-linecap: round"/>
    <path d="M 361.867717 177.702864 
L 360.467717 180.502864 
L 359.067717 177.702864 
z
" clip-path="url(#pd204dfcc28)" style="fill: #3a3a3a; stroke: #3a3a3a; stroke-width: 0.6; stroke-linecap: round"/>
   </g>
   <g id="patch_20">
    <path d="M 307.743307 210.008637 
L 413.192126 210.008637 
Q 415.388976 210.008637 415.388976 207.938369 
L 415.388976 183.243952 
Q 415.388976 181.173684 413.192126 181.173684 
L 307.743307 181.173684 
Q 305.546457 181.173684 305.546457 183.243952 
L 305.546457 207.938369 
Q 305.546457 210.008637 307.743307 210.008637 
z
" clip-path="url(#pd204dfcc28)" style="fill: #307e3e; stroke: #307e3e; stroke-width: 0.6; stroke-linejoin: miter"/>
   </g>
   <g id="patch_21">
    <path d="M 239.640945 219.324843 
Q 239.640945 222.430245 239.640945 224.864827 
" clip-path="url(#pd204dfcc28)" style="fill: none; stroke: #3a3a3a; stroke-width: 0.6; stroke-linecap: round"/>
    <path d="M 241.040945 222.064827 
L 239.640945 224.864827 
L 238.240945 222.064827 
z
" clip-path="url(#pd204dfcc28)" style="fill: #3a3a3a; stroke: #3a3a3a; stroke-width: 0.6; stroke-linecap: round"/>
   </g>
   <g id="patch_22">
    <path d="M 99.04252 247.519306 
L 380.23937 247.519306 
Q 382.43622 247.519306 382.43622 245.449038 
L 382.43622 227.605915 
Q 382.43622 225.535647 380.23937 225.535647 
L 99.04252 225.535647 
Q 96.845669 225.535647 96.845669 227.605915 
L 96.845669 245.449038 
Q 96.845669 247.519306 99.04252 247.519306 
z
" clip-path="url(#pd204dfcc28)" style="fill: #54278f; stroke: #54278f; stroke-width: 0.6; stroke-linejoin: miter"/>
   </g>
   <g id="line2d_1">
    <path d="M 118.814173 219.324843 
L 360.467717 219.324843 
" clip-path="url(#pd204dfcc28)" style="fill: none; stroke: #3a3a3a; stroke-width: 0.6; stroke-linecap: square"/>
   </g>
   <g id="line2d_2">
    <path d="M 118.814173 217.254575 
L 118.814173 219.324843 
" clip-path="url(#pd204dfcc28)" style="fill: none; stroke: #3a3a3a; stroke-width: 0.6; stroke-linecap: square"/>
   </g>
   <g id="line2d_3">
    <path d="M 239.640945 217.254575 
L 239.640945 219.324843 
" clip-path="url(#pd204dfcc28)" style="fill: none; stroke: #3a3a3a; stroke-width: 0.6; stroke-linecap: square"/>
   </g>
   <g id="line2d_4">
    <path d="M 360.467717 217.254575 
L 360.467717 219.324843 
" clip-path="url(#pd204dfcc28)" style="fill: none; stroke: #3a3a3a; stroke-width: 0.6; stroke-linecap: square"/>
   </g>
   <g id="text_1">
    <text style="font-size: 9px; font-family: 'Arial, Liberation Sans'; text-anchor: start; fill: #3a3a3a" x="63.892913" y="14.86279" transform="rotate(-0 63.892913 14.86279)">Figura 1. Arquitetura do Potencial de Creche por Município (PCM)</text>
   </g>
   <g id="text_2">
    <text style="font-weight: 700; font-size: 8px; font-family: 'Arial, Liberation Sans'; fill: #ffffff" transform="translate(82.145423 29.857083)">Situação do ensino</text>
    <text style="font-weight: 700; font-size: 8px; font-family: 'Arial, Liberation Sans'; fill: #ffffff" transform="translate(106.143548 39.316692)">básico</text>
   </g>
   <g id="text_3">
    <text style="font-size: 7px; font-family: 'Arial, Liberation Sans'; fill: #3a3a3a" transform="translate(75.632923 53.486914)">Matrículas em creche / pop.</text>
    <text style="font-size: 7px; font-family: 'Arial, Liberation Sans'; fill: #3a3a3a" transform="translate(72.900189 61.692431)">de 0 a 4 anos. Censo Escolar</text>
    <text style="font-size: 7px; font-family: 'Arial, Liberation Sans'; fill: #3a3a3a" transform="translate(76.396908 68.741308)">2023; Censo 2022. Peso 2,</text>
    <text style="font-size: 7px; font-family: 'Arial, Liberation Sans'; fill: #3a3a3a" transform="translate(95.274486 76.801904)">sentido inverso</text>
   </g>
   <g id="text_4">
    <text style="font-size: 7px; font-family: 'Arial, Liberation Sans'; fill: #3a3a3a" transform="translate(76.606908 89.250372)">Matrículas em pré-escola e</text>
    <text style="font-size: 7px; font-family: 'Arial, Liberation Sans'; fill: #3a3a3a" transform="translate(74.256439 96.764093)">fundamental / pop. de 5 a 14</text>
    <text style="font-size: 7px; font-family: 'Arial, Liberation Sans'; fill: #3a3a3a" transform="translate(76.791204 104.597188)">anos. Censo Escolar 2023;</text>
    <text style="font-size: 7px; font-family: 'Arial, Liberation Sans'; fill: #3a3a3a" transform="translate(73.869251 112.151925)">Censo 2022. Peso 1, sentido</text>
    <text style="font-size: 7px; font-family: 'Arial, Liberation Sans'; fill: #3a3a3a" transform="translate(107.532142 120.120099)">inverso</text>
   </g>
   <g id="text_5">
    <text style="font-size: 7px; font-family: 'Arial, Liberation Sans'; fill: #3a3a3a" transform="translate(84.772298 133.107649)">Oferta privada / oferta</text>
    <text style="font-size: 7px; font-family: 'Arial, Liberation Sans'; fill: #3a3a3a" transform="translate(77.765189 141.354182)">total. Censo Escolar 2023.</text>
    <text style="font-size: 7px; font-family: 'Arial, Liberation Sans'; fill: #3a3a3a" transform="translate(82.433861 148.495481)">Peso 1, sentido inverso</text>
   </g>
   <g id="text_6">
    <text style="font-weight: 700; font-size: 8px; font-family: 'Arial, Liberation Sans'; text-anchor: middle; fill: #ffffff" x="239.640945" y="30.537552" transform="rotate(-0 239.640945 30.537552)">Perfil demográfico</text>
   </g>
   <g id="text_7">
    <text style="font-size: 7px; font-family: 'Arial, Liberation Sans'; fill: #3a3a3a" transform="translate(198.788836 46.760606)">Mortalidade infantil (óbitos</text>
    <text style="font-size: 7px; font-family: 'Arial, Liberation Sans'; fill: #3a3a3a" transform="translate(198.787195 54.313702)">até 1 ano por mil nascidos</text>
    <text style="font-size: 7px; font-family: 'Arial, Liberation Sans'; fill: #3a3a3a" transform="translate(194.119617 61.829063)">vivos). Datasus 2020. Peso 1</text>
   </g>
   <g id="text_8">
    <text style="font-size: 7px; font-family: 'Arial, Liberation Sans'; fill: #3a3a3a" transform="translate(198.973679 76.651653)">População de 0 a 4 anos /</text>
    <text style="font-size: 7px; font-family: 'Arial, Liberation Sans'; fill: #3a3a3a" transform="translate(194.11032 84.206389)">população total. Censo 2022.</text>
    <text style="font-size: 7px; font-family: 'Arial, Liberation Sans'; fill: #3a3a3a" transform="translate(228.745007 92.339719)">Peso 1</text>
   </g>
   <g id="text_9">
    <text style="font-size: 7px; font-family: 'Arial, Liberation Sans'; fill: #3a3a3a" transform="translate(198.785554 106.615981)">Taxa de natalidade por mil</text>
    <text style="font-size: 7px; font-family: 'Arial, Liberation Sans'; fill: #3a3a3a" transform="translate(200.142898 114.170717)">habitantes. Ipardes 2022.</text>
    <text style="font-size: 7px; font-family: 'Arial, Liberation Sans'; fill: #3a3a3a" transform="translate(228.745007 122.288735)">Peso 1</text>
   </g>
   <g id="text_10">
    <text style="font-weight: 700; font-size: 8px; font-family: 'Arial, Liberation Sans'; text-anchor: middle; fill: #ffffff" x="360.467717" y="30.650677" transform="rotate(-0 360.467717 30.650677)">Quadro socioeconômico</text>
   </g>
   <g id="text_11">
    <text style="font-size: 7px; font-family: 'Arial, Liberation Sans'; fill: #3a3a3a" transform="translate(320.19967 46.122539)">Desnutrição infantil (baixo</text>
    <text style="font-size: 7px; font-family: 'Arial, Liberation Sans'; fill: #3a3a3a" transform="translate(322.71967 53.692588)">peso para a idade, 0 a 4</text>
    <text style="font-size: 7px; font-family: 'Arial, Liberation Sans'; fill: #3a3a3a" transform="translate(318.83631 61.289981)">anos). Ministério da Saúde</text>
    <text style="font-size: 7px; font-family: 'Arial, Liberation Sans'; fill: #3a3a3a" transform="translate(339.841779 69.401436)">2023. Peso 1</text>
   </g>
   <g id="text_12">
    <text style="font-size: 7px; font-family: 'Arial, Liberation Sans'; fill: #3a3a3a" transform="translate(318.446935 82.466095)">Crianças a acompanhar no</text>
    <text style="font-size: 7px; font-family: 'Arial, Liberation Sans'; fill: #3a3a3a" transform="translate(321.75006 90.534894)">CadÚnico / pop. de 0 a 9</text>
    <text style="font-size: 7px; font-family: 'Arial, Liberation Sans'; fill: #3a3a3a" transform="translate(320.001701 98.323693)">anos. Ministério da Saúde</text>
    <text style="font-size: 7px; font-family: 'Arial, Liberation Sans'; fill: #3a3a3a" transform="translate(339.841779 105.744992)">2023. Peso 1</text>
   </g>
   <g id="text_13">
    <text style="font-size: 7px; font-family: 'Arial, Liberation Sans'; fill: #3a3a3a" transform="translate(323.118888 118.824964)">IPDM renda, emprego e</text>
    <text style="font-size: 7px; font-family: 'Arial, Liberation Sans'; fill: #3a3a3a" transform="translate(323.500607 126.405403)">produção agropecuária.</text>
    <text style="font-size: 7px; font-family: 'Arial, Liberation Sans'; fill: #3a3a3a" transform="translate(313.966388 133.934437)">Ipardes 2021. Peso 1, sentido</text>
    <text style="font-size: 7px; font-family: 'Arial, Liberation Sans'; fill: #3a3a3a" transform="translate(349.185685 142.18097)">inverso</text>
   </g>
   <g id="text_14">
    <text style="font-size: 7.5px; font-family: 'Arial, Liberation Sans'; text-anchor: middle; fill: #3a3a3a" x="239.640945" y="168.328555" transform="rotate(-0 239.640945 168.328555)">Normalização mínimo–máximo de cada indicador, de 0 a 100</text>
   </g>
   <g id="text_15">
    <text style="font-weight: 700; font-size: 7.5px; font-family: 'Arial, Liberation Sans'; fill: #ffffff" transform="translate(77.1464 189.436253)">Fator educacional (FE):</text>
    <text style="font-weight: 700; font-size: 7.5px; font-family: 'Arial, Liberation Sans'; fill: #ffffff" transform="translate(93.805189 197.530613)">(2·a + b + c)/4,</text>
    <text style="font-weight: 700; font-size: 7.5px; font-family: 'Arial, Liberation Sans'; fill: #ffffff" transform="translate(80.250111 206.366185)">reescalado de 0 a 100</text>
   </g>
   <g id="text_16">
    <text style="font-size: 7px; font-family: 'Arial, Liberation Sans'; text-anchor: middle; fill: #3a3a3a" x="118.814173" y="215.960696" transform="rotate(-0 118.814173 215.960696)">peso 2 no PCM</text>
   </g>
   <g id="text_17">
    <text style="font-weight: 700; font-size: 7.5px; font-family: 'Arial, Liberation Sans'; fill: #ffffff" transform="translate(196.936062 189.452659)">Fator demográfico (FD):</text>
    <text style="font-weight: 700; font-size: 7.5px; font-family: 'Arial, Liberation Sans'; fill: #ffffff" transform="translate(197.329812 197.530613)">(a + b + c)/3, reescalado</text>
    <text style="font-weight: 700; font-size: 7.5px; font-family: 'Arial, Liberation Sans'; fill: #ffffff" transform="translate(221.713015 206.366185)">de 0 a 100</text>
   </g>
   <g id="text_18">
    <text style="font-size: 7px; font-family: 'Arial, Liberation Sans'; text-anchor: middle; fill: #3a3a3a" x="239.640945" y="215.960696" transform="rotate(-0 239.640945 215.960696)">peso 1 no PCM</text>
   </g>
   <g id="text_19">
    <text style="font-weight: 700; font-size: 7.5px; font-family: 'Arial, Liberation Sans'; fill: #ffffff" transform="translate(320.464006 190.259495)">Fator socioeconômico</text>
    <text style="font-weight: 700; font-size: 7.5px; font-family: 'Arial, Liberation Sans'; fill: #ffffff" transform="translate(329.213224 197.530613)">(FS): (a + b + c)/3,</text>
    <text style="font-weight: 700; font-size: 7.5px; font-family: 'Arial, Liberation Sans'; fill: #ffffff" transform="translate(321.903654 206.366185)">reescalado de 0 a 100</text>
   </g>
   <g id="text_20">
    <text style="font-size: 7px; font-family: 'Arial, Liberation Sans'; text-anchor: middle; fill: #3a3a3a" x="360.467717" y="215.960696" transform="rotate(-0 360.467717 215.960696)">peso 2 no PCM</text>
   </g>
   <g id="text_21">
    <text style="font-weight: 700; font-size: 7.5px; font-family: 'Arial, Liberation Sans'; fill: #ffffff" transform="translate(115.951882 234.41975)">PCM = (2·FE + FD + 2·FS)/5/100, entre 0 e 1 (observado: 0,240 a 0,789)</text>
    <text style="font-weight: 700; font-size: 7.5px; font-family: 'Arial, Liberation Sans'; fill: #ffffff" transform="translate(113.772195 242.546923)">Variante usada só na faixa P3 da consolidada: (1·FE + FD + 3·FS)/5/100</text>
   </g>
  </g>
  <g id="text_22">
   <text style="font-size: 7px; font-family: 'Arial, Liberation Sans'; text-anchor: start; fill: #5f5f5f" x="7.2" y="291.737521" transform="rotate(-0 7.2 291.737521)">Fonte: Elaboração própria a partir das planilhas do PCM, da apresentação do programa e da Resolução SEDEF 219/2024.</text>
  </g>
 </g>
 <defs>
  <clipPath id="pd204dfcc28">
   <rect x="63.892913" y="7.2" width="351.496063" height="244.459843"/>
  </clipPath>
 </defs>
</svg>
